<svg xmlns="http://www.w3.org/2000/svg" version="1.1" xmlns:xlink="http://www.w3.org/1999/xlink" xmlns:svgjs="http://svgjs.dev/svgjs" width="2000" height="378" viewBox="0 0 2000 378"><g transform="matrix(1,0,0,1,-1.2121212121212466,-0.904193502530859)"><svg viewBox="0 0 396 75" data-background-color="#ffffff" preserveAspectRatio="xMidYMid meet" height="378" width="2000" xmlns="http://www.w3.org/2000/svg" xmlns:xlink="http://www.w3.org/1999/xlink"><g id="tight-bounds" transform="matrix(1,0,0,1,0.2400000000000091,0.17940347272437407)"><svg viewBox="0 0 395.52 74.64119305455125" height="74.64119305455125" width="395.52"><g><svg viewBox="0 0 503.2071428763264 94.9635454537344" height="74.64119305455125" width="395.52"><g transform="matrix(1,0,0,1,107.6871428763264,6.087449215571191)"><svg viewBox="0 0 395.52 82.78864702259202" height="82.78864702259202" width="395.52"><g id="textblocktransform"><svg viewBox="0 0 395.52 82.78864702259202" height="82.78864702259202" width="395.52" id="textblock"><g><svg viewBox="0 0 395.52 53.896192000000006" height="53.896192000000006" width="395.52"><g transform="matrix(1,0,0,1,0,0)"><svg width="395.52" viewBox="4.25 -25.2 187.48 25.55" height="53.896192000000006" data-palette-color="#de60ce"><path d="M12.5-21.9L7.95-21.85 7.9-13.65 12.2-13.6 16.6-13.75 16.85-13.4 16.6-10.55 11.85-10.6 7.85-10.55 7.85-7.8 7.95 0 4.25 0 4.35-7.5 4.25-24.9 18.75-24.9 18.95-24.6 18.65-21.7 12.5-21.9ZM37.05-3.15L37.25-2.8 37 0 23.75 0 23.9-7.5 23.75-24.9 27.5-24.9 27.35-7.8 27.45-3.15 37.05-3.15ZM53.35-24.9L62.1 0 58.35 0 57.75-2.7 56.45-6.4 50.5-6.45 45.2-6.4 43.85-2.9 43.15 0 39.45 0 49.05-24.9 53.35-24.9ZM50.8-9.4L55.4-9.45 51.25-21.25 50.95-21.25 46.4-9.45 50.8-9.4ZM92.24-24.9L94.79 0 91.44 0 90.89-7.6 89.54-19.1 89.24-19.1 82.09-2.8 79.14-2.8 72.39-19.1 72.09-19.1 70.79-7.9 70.09 0 66.89 0 69.64-24.9 73.99-24.9 75.24-21.15 80.69-7.75 80.99-7.75 86.69-21.35 87.99-24.9 92.24-24.9ZM106.19-24.9L106.04-7.8 106.14 0 102.44 0 102.59-7.5 102.44-24.9 106.19-24.9ZM136.19-25L136.04-7.45 136.09 0 132.09 0 118.99-19 118.74-19 118.69-8.3 118.79 0 115.39 0 115.54-7.35 115.44-24.9 119.39-24.9 132.49-5.9 132.84-5.9 132.74-24.75 136.19-25ZM155.14-25.15Q159.04-25.15 162.99-23.45L162.99-23.45 161.74-19.85 161.29-19.85Q159.44-21.05 157.89-21.53 156.34-22 154.54-22L154.54-22Q150.29-22 148.16-19.6 146.04-17.2 146.04-12.1L146.04-12.1Q146.04-7.2 147.99-5.03 149.94-2.85 154.19-2.85L154.19-2.85Q155.44-2.85 156.59-3.08 157.74-3.3 159.39-3.9L159.39-3.9 159.39-6.4 159.34-9.95 162.79-10.2 162.79-1.2Q157.74 0.3 154.04 0.3L154.04 0.3Q148.14 0.3 145.11-2.88 142.09-6.05 142.09-11.95L142.09-11.95Q142.09-18.35 145.51-21.75 148.94-25.15 155.14-25.15L155.14-25.15ZM180.43-25.2Q185.88-25.2 188.81-22 191.73-18.8 191.73-12.95L191.73-12.95Q191.73-6.6 188.61-3.13 185.48 0.35 179.68 0.35L179.68 0.35Q174.28 0.35 171.33-2.93 168.38-6.2 168.38-12.25L168.38-12.25Q168.38-18.45 171.53-21.83 174.68-25.2 180.43-25.2L180.43-25.2ZM180.08-22.05Q176.13-22.05 174.21-19.8 172.28-17.55 172.28-12.7L172.28-12.7Q172.28-7.5 174.18-5.15 176.08-2.8 179.98-2.8L179.98-2.8Q183.98-2.8 185.93-5.1 187.88-7.4 187.88-12.3L187.88-12.3Q187.88-17.35 185.96-19.7 184.03-22.05 180.08-22.05L180.08-22.05Z" opacity="1" transform="matrix(1,0,0,1,0,0)" fill="#de60ce" class="wordmark-text-0" data-fill-palette-color="primary" id="text-0"></path></svg></g></svg></g><g transform="matrix(1,0,0,1,0,66.619789422592)"><svg viewBox="0 0 102.57613716587414 16.168857600000003" height="16.168857600000003" width="102.57613716587414"><g transform="matrix(1,0,0,1,0,0)"><svg width="102.57613716587414" viewBox="1.7 -35.35 226.79000000000002 35.75" height="16.168857600000003" data-palette-color="#de60ce"><path d="M33.9-30.4L30.55-26.35Q28.55-28.25 25.88-29.33 23.2-30.4 20.45-30.4L20.45-30.4Q17.75-30.4 15.45-29.4 13.15-28.4 11.4-26.65 9.65-24.9 8.68-22.58 7.7-20.25 7.7-17.55L7.7-17.55Q7.7-14.85 8.68-12.5 9.65-10.15 11.4-8.38 13.15-6.6 15.48-5.6 17.8-4.6 20.5-4.6L20.5-4.6Q22.95-4.6 25.58-5.6 28.2-6.6 30.3-8.3L30.3-8.3 33.7-4.2Q31.95-2.85 29.68-1.8 27.4-0.75 24.95-0.18 22.5 0.4 20.1 0.4L20.1 0.4Q16.2 0.4 12.88-0.98 9.55-2.35 7.03-4.8 4.5-7.25 3.1-10.53 1.7-13.8 1.7-17.55L1.7-17.55Q1.7-21.3 3.13-24.53 4.55-27.75 7.1-30.2 9.65-32.65 13.08-34 16.5-35.35 20.45-35.35L20.45-35.35Q22.95-35.35 25.38-34.75 27.8-34.15 30-33.05 32.2-31.95 33.9-30.4L33.9-30.4ZM28.55-4.2L28.55-17.1 33.7-17.1 33.7-4.2 28.55-4.2ZM37.5 0L52.95-35 59-35 74.3 0 68 0 55.8-29.05 43.65 0 37.5 0ZM45.2-8.1L45.2-13.1 66.15-13.1 66.15-8.1 45.2-8.1ZM78.94 0L78.94-35 84.84-35 84.84-5.05 100-5.05 100 0 78.94 0ZM105.64 0L105.64-35 111.54-35 111.54-5.05 126.69-5.05 126.69 0 105.64 0ZM132.34 0L132.34-35 157.34-35 157.34-29.95 138.24-29.95 138.24-20.1 155.34-20.1 155.34-15.1 138.24-15.1 138.24-5.05 157.94-5.05 157.94 0 132.34 0ZM165.14-35L179.34-35Q186.09-35 189.76-31.88 193.44-28.75 193.44-23.1L193.44-23.1Q193.44-17.2 189.76-13.93 186.09-10.65 179.34-10.65L179.34-10.65 171.04-10.65 171.04 0 165.14 0 165.14-35ZM171.04-15.7L179.34-15.7Q183.39-15.7 185.61-17.48 187.84-19.25 187.84-22.95L187.84-22.95Q187.84-26.5 185.61-28.23 183.39-29.95 179.34-29.95L179.34-29.95 171.04-29.95 171.04-15.7ZM187.34 0L179.54-12.95 185.34-12.95 194.04 0 187.34 0ZM212.24-7.4L196.74-35 202.69-35 212.69-17.7 222.49-35 228.49-35 213.09-7.4 212.24-7.4ZM209.79 0L209.79-14.75 215.64-14.75 215.64 0 209.79 0Z" opacity="1" transform="matrix(1,0,0,1,0,0)" fill="#de60ce" class="slogan-text-1" data-fill-palette-color="secondary" id="text-1"></path></svg></g></svg></g></svg></g></svg></g><g><svg viewBox="0 0 94.9635454537344 94.9635454537344" height="94.9635454537344" width="94.9635454537344"><g><svg xmlns="http://www.w3.org/2000/svg" xmlns:xlink="http://www.w3.org/1999/xlink" version="1.1" x="0" y="0" viewBox="358 60 672 672" style="enable-background:new 194 -104 1000 1000;" xml:space="preserve" height="94.9635454537344" width="94.9635454537344" class="icon-icon-0" data-fill-palette-color="accent" id="icon-0"><path d="M1007.7 516.3L1008 515.7C1008 515.6 1008 515.6 1008.1 515.5 1008.1 515.5 1008.1 515.4 1008.2 515.4 1022.6 477.3 1030 437.1 1030 396 1030 210.8 879.3 60 694 60S358 210.8 358 396C358 478.7 387.4 556.3 441.4 617.6 441.5 617.7 441.6 617.9 441.7 618 443.1 619.6 444.6 621.3 446.1 622.9L448.8 625.9 449 626.1C512.5 693.7 600.2 732 694 732 761.6 732 826.7 712 882.4 674.2 890.5 668.7 892.6 657.7 887.1 649.7 881.6 641.6 870.6 639.5 862.6 645 812.8 678.8 754.5 696.7 694 696.7 615.5 696.7 541.8 666.8 486.2 613.4 486 613.2 485.8 612.9 485.6 612.7 481.9 609.1 478.3 605.5 474.8 601.8 473.9 600.9 473.1 599.9 472.2 599 470.9 597.6 469.7 596.2 468.4 594.8 468.2 594.6 468.1 594.4 467.9 594.3 464.2 590.1 460.6 585.7 457.1 581.2 457 581 456.8 580.8 456.6 580.7 415.6 528.2 393.4 464.1 393.4 396.2 393.4 230.4 528.3 95.6 694 95.6S994.6 230.2 994.6 396C994.6 425.9 990.3 455.3 981.7 483.6 943.3 463.6 902.9 453.1 863.6 453.1 799.2 453.1 739 470.5 694.8 500.1 701.3 482.3 708.2 464.7 715 447.3 720 434.5 725.2 421.3 730.2 408.1 743.8 371.9 757.2 333.1 757.4 292.9 757.5 268.7 752.6 248.3 742.9 232.3 730.2 211.3 709.4 195.1 682.9 185.4 658.5 176.6 631.8 174.7 609.6 180.3 608.9 180.5 608.2 180.7 607.7 180.8 607.4 180.9 607 181 606.8 181 606.4 181.1 606 181.2 605.5 181.4 604.7 181.6 603.9 181.9 602.9 182.2 602.2 182.4 601.5 182.7 600.5 183L599.7 183.3C592.2 186 584.9 189.6 578.1 193.8 567.6 200.2 557.8 208.2 549 217.6 522.4 245.6 508.4 285.9 514 316.2 510.1 325.5 507.4 333.8 506.7 336.1 493.6 371.8 525.2 411.6 530.3 417.6 540 430.2 554.8 446.5 572.5 445.2 582.4 444.5 589.1 438.6 592.1 433.2 592.4 432.7 592.6 432.2 592.9 431.7 594.9 427.1 597.7 420.9 586.3 392.2L585.3 388.3C582.7 378.1 585.3 367.4 592.1 359.6 595.2 356.1 598.8 352.2 602.8 348.1 618.1 340.5 633.1 329 646.5 314.9 651.7 309.4 657 302 662.7 292.3 663 291.8 663.6 290.8 665.2 291.1 666.9 291.4 667 292.5 667.1 293.2 668.2 301 668.1 310 666.6 319.8 665.7 325.8 663.8 332.2 661.7 338.9L660.5 342.9C655.9 358 650.2 374.1 642.5 393.7 640.2 399.7 637.8 405.7 635.4 411.6 623.8 441 611.8 471.5 601.7 502.4 591.9 532.6 585.8 557.6 582.6 581.1 581.3 590.8 588 599.7 597.7 601 598.5 601.1 599.3 601.2 600.1 601.2 608.8 601.2 616.4 594.8 617.6 585.9 620.5 564.5 626.2 541.4 635.3 513.3 645 483.5 656.8 453.5 668.2 424.6 670.6 418.6 672.9 412.6 675.3 406.6 683.3 386.1 689.3 369.1 694.2 353.1L695.4 349.3C697.8 341.6 700.2 333.7 701.5 324.9 703.4 311.8 703.6 299.4 702 288.2 699.7 272.1 687.9 259.6 671.9 256.4 655.9 253.3 640.3 260.3 632 274.4 626.7 283.4 622.9 288.2 620.6 290.6 609.5 302.3 596.7 311.9 584.5 317.6 582.6 318.5 580.9 319.7 579.4 321.2 574.1 326.6 569.4 331.6 565.3 336.3 553.9 349.2 548.1 366 548.7 383 542.1 372 536.1 357.5 539.7 348.1 539.9 347.7 540 347.3 540.1 346.9 540.1 346.8 543.4 335.9 548.3 325.4 550.1 321.5 550.4 317 549.2 312.9 544.3 296.7 552.6 265 574.4 242 581.2 234.9 588.6 228.8 596.5 223.9 601.3 220.9 606.3 218.5 611.4 216.6 611.5 216.6 611.7 216.5 611.8 216.5L612.1 216.4C612.6 216.2 613.1 216.1 613.6 215.9 614.2 215.7 614.8 215.5 615.3 215.4L616 215.2C616.1 215.2 616.2 215.1 616.2 215.1 616.3 215.1 616.4 215 616.6 215 617 214.9 617.4 214.8 617.9 214.7 633.5 210.8 652.7 212.2 670.6 218.7 683.8 223.5 701.7 232.9 712.4 250.6 718.7 261 721.8 275.2 721.8 292.8 721.6 327.2 709.4 362.5 696.9 395.7 692 408.6 686.9 421.7 681.9 434.4 666.3 474.1 650.1 515.1 639.7 557.9 637.6 566.3 642 575 650 578.4S667.2 578.9 671.8 571.5C703 521.8 780 488.4 863.3 488.4 912.8 488.4 954.9 507.8 981.6 524.2 982.2 524.6 982.8 524.9 983.5 525.3 983.6 525.3 983.6 525.3 983.7 525.4 984.1 525.6 984.5 525.8 984.9 525.9 985 525.9 985.1 525.9 985.1 526 985.2 526 985.3 526.1 985.4 526.1 985.9 526.3 986.3 526.4 986.8 526.5H986.9C991.5 527.7 996.1 526.9 1000 524.7 1000.5 524.4 1000.9 524.1 1001.4 523.8 1001.5 523.8 1001.5 523.7 1001.6 523.6L1002.8 522.7 1003 522.5C1003.4 522.2 1003.7 521.8 1004.1 521.5L1004.3 521.3C1004.6 520.9 1005 520.5 1005.3 520.1L1005.5 519.9C1005.8 519.5 1006.1 519.1 1006.3 518.7V518.6C1006.4 518.5 1006.4 518.3 1006.5 518.2 1006.7 517.8 1006.9 517.5 1007.1 517.1 1007.5 516.9 1007.6 516.6 1007.7 516.3" fill="#de60ce" data-fill-palette-color="accent"></path></svg></g></svg></g></svg></g><defs></defs></svg><rect width="395.52" height="74.64119305455125" fill="none" stroke="none" visibility="hidden"></rect></g></svg></g></svg>